<svg width="41" height="50" viewBox="0 0 41 50" fill="none" xmlns="http://www.w3.org/2000/svg">
<g id="Group 1000004937">
<g id="Group">
<path id="Vector" d="M2.33517 19.2429C1.14686 19.2429 0.182836 18.2868 0.171031 17.0986L0.165129 16.3649C0.163162 16.3236 0.161194 16.2803 0.161194 16.239C0.161194 16.0737 0.169064 15.9046 0.182835 15.7413C0.281205 14.4607 0.782894 13.2489 1.63281 12.2555C1.863 11.9879 2.11482 11.7401 2.38632 11.5158C2.37649 10.7939 2.49059 10.068 2.72865 9.36766C2.98441 8.6162 3.37199 7.92179 3.88155 7.30213C4.38127 6.70215 4.96362 6.20839 5.61876 5.82872C5.65024 5.80905 5.68172 5.78938 5.71319 5.77168C6.4372 5.36644 7.23399 5.10874 8.04653 5.01235C8.09375 4.94546 8.14293 4.88055 8.19212 4.81563C8.85316 3.96581 9.71882 3.33042 10.7025 2.96846C11.3262 2.74027 11.9813 2.62617 12.6522 2.62617C12.8844 2.62617 13.1185 2.63994 13.3526 2.66748C13.8169 2.0852 14.3816 1.57964 15.0269 1.16456C16.0696 0.497694 17.2854 0.102292 18.5485 0.0177038C18.7177 0.00590079 18.8908 0 19.062 0C20.15 0 21.236 0.236061 22.202 0.682608C23.1247 1.10948 23.9234 1.71144 24.5668 2.46093C24.5983 2.46093 24.6297 2.46093 24.6612 2.46093C25.5761 2.46093 26.4909 2.68519 27.3074 3.10616C28.051 3.49173 28.6845 4.02483 29.1725 4.67006C29.3712 4.65432 29.5699 4.64449 29.7706 4.64449C30.8703 4.64449 31.9819 4.90415 32.9853 5.39595C33.9906 5.88774 34.8838 6.61559 35.5626 7.49885C36.1075 8.20703 36.5109 9.00767 36.7588 9.86142C37.5201 10.1703 38.2186 10.6326 38.8048 11.2247C39.9479 12.3794 40.5775 13.9099 40.5775 15.5367C40.5775 15.7059 40.5696 15.8751 40.5558 16.0403C40.5499 16.1151 40.5421 16.1898 40.5322 16.2626C40.5047 16.4888 40.4653 16.715 40.4142 16.9373L40.2666 17.5727C40.0384 18.5524 39.1649 19.2448 38.1595 19.2448H2.33517V19.2429ZM31.1831 13.2725C31.0671 12.885 31.0297 12.4719 31.0749 12.0686C31.0749 12.0607 31.0749 12.0548 31.0769 12.0489V11.927C31.0769 11.6142 30.9903 11.3447 30.8251 11.1283C30.7051 10.9709 30.5457 10.8411 30.3627 10.7525C30.1778 10.6621 29.9752 10.6148 29.7706 10.6148C29.5109 10.6148 29.2689 10.6975 29.0505 10.8607C28.5508 11.2522 27.9468 11.4686 27.3034 11.4902C27.2779 11.4902 27.2405 11.4902 27.2031 11.4902C26.6621 11.4902 26.1289 11.3427 25.6626 11.0614C25.1137 10.7388 24.6829 10.2411 24.4291 9.6352C24.4251 9.6234 24.4192 9.61356 24.4153 9.60176C24.311 9.34406 24.2441 9.07455 24.2146 8.80112C24.13 8.83259 24.0415 8.86013 23.9549 8.88374C23.888 8.90144 23.8211 8.91718 23.7542 8.92702C23.5614 8.96439 23.3647 8.98407 23.168 8.98407C22.9614 8.98407 22.7528 8.96243 22.5502 8.91915C22.0072 8.80505 21.5055 8.54145 21.1022 8.15785C20.7107 7.78803 20.4254 7.31984 20.2779 6.80051C20.272 6.78083 20.266 6.76116 20.2621 6.74149C20.1559 6.43068 19.9709 6.21822 19.7014 6.09429C19.5165 6.00774 19.2961 5.96249 19.0679 5.96249C19.0285 5.96249 18.9892 5.96249 18.9518 5.96643C18.6843 5.98413 18.4344 6.06085 18.2436 6.18281C18.0134 6.33035 17.8855 6.53887 17.8422 6.83592C17.7694 7.32574 17.5825 7.78606 17.2992 8.17752C17.0198 8.56506 16.6382 8.88571 16.1955 9.10603C16.1325 9.13947 16.0657 9.17095 15.9988 9.19849C15.6387 9.34602 15.2571 9.41881 14.8675 9.41881C14.718 9.41881 14.5665 9.40701 14.417 9.38537C13.9684 9.32045 13.5277 9.14537 13.146 8.87784C13.1027 8.84833 13.0614 8.81882 13.0201 8.78735C12.9532 8.7362 12.8962 8.69686 12.847 8.66932C12.847 8.67522 12.8371 8.71653 12.8352 8.73227C12.7585 9.10603 12.6011 9.47979 12.3807 9.80634C12.3532 9.84765 12.3217 9.88896 12.2902 9.92831C12.0443 10.2549 11.7413 10.5244 11.3872 10.727C11.338 10.7545 11.2908 10.7801 11.2396 10.8037C10.915 10.967 10.5589 11.0712 10.1989 11.1086C10.0985 11.1184 9.99229 11.1243 9.88998 11.1243C9.56143 11.1243 9.23681 11.0712 8.92596 10.965C8.8689 10.9453 8.81775 10.9355 8.77447 10.9355C8.74299 10.9355 8.69577 10.9394 8.63675 10.9729C8.62691 10.9788 8.61904 10.9827 8.60921 10.9886C8.56986 11.0142 8.53248 11.0516 8.4951 11.0948C8.44198 11.1578 8.4046 11.2227 8.38296 11.2876C8.34361 11.4037 8.35738 11.5158 8.42821 11.6417C8.44394 11.6712 8.46165 11.7007 8.47542 11.7322L8.48133 11.746C8.6702 12.1138 8.77643 12.5092 8.80201 12.9243C8.80791 12.9873 8.80988 13.0522 8.80988 13.1151C8.80988 13.1663 8.80988 13.2194 8.80595 13.2705H31.1871L31.1831 13.2725Z" fill="#00211F"/>
<path id="Vector_2" d="M10.7183 15.6486C9.15229 15.6486 7.84397 14.425 7.74166 12.8611C7.73379 12.7333 7.72986 12.5877 7.72986 12.4205C7.72986 12.4146 7.72986 12.4087 7.72986 12.4048C7.72986 12.2533 7.7397 12.0998 7.75347 11.9484C7.89315 10.4573 8.58371 9.11172 9.7071 8.13797C9.73857 8.10846 9.77005 8.08092 9.8035 8.05141C10.8305 7.19963 12.1309 6.73145 13.4648 6.73145C13.6419 6.73145 13.8229 6.73931 14 6.75702C14.3659 6.79046 14.7279 6.85931 15.0761 6.9616C15.4244 7.06193 15.7647 7.19963 16.0893 7.36487C17.5511 8.1124 18.1335 9.91236 17.3859 11.3759C16.8724 12.3792 15.8552 13.0008 14.7299 13.0008C14.3797 13.0008 14.0295 12.9379 13.699 12.8159C13.6222 14.307 12.4398 15.5404 10.917 15.6408C10.8502 15.6447 10.7852 15.6467 10.7183 15.6467V15.6486Z" fill="#00211F"/>
<path id="Vector_3" d="M30.6955 16.6802C30.3177 16.6802 29.9479 16.6094 29.5957 16.4697C28.5136 16.0409 27.8231 15.0455 27.7247 13.9616C26.6367 13.7373 25.7396 12.9131 25.4445 11.8095C25.0195 10.22 25.9678 8.58139 27.5575 8.15648C27.9785 8.04435 28.4113 7.9873 28.8422 7.9873C30.1702 7.9873 31.4195 8.50467 32.3599 9.44498C32.3678 9.45285 32.3737 9.45875 32.3815 9.46662C33.3101 10.405 33.8217 11.6462 33.8217 12.9662C33.8217 13.2731 33.7922 13.5878 33.7312 13.9006C33.6721 14.2075 33.5836 14.5085 33.4675 14.7996C33.0131 15.9445 31.9251 16.6822 30.6955 16.6822V16.6802Z" fill="#00211F"/>
<path id="Vector_4" d="M24.1065 16.2426C22.8454 16.2426 21.7673 15.4656 21.3305 14.3561C21.2951 14.3758 21.2577 14.3955 21.2184 14.4132C20.7914 14.6236 20.3488 14.7318 19.9022 14.7318C19.7487 14.7318 19.6071 14.72 19.4733 14.6984C18.9224 15.2531 18.163 15.5876 17.3505 15.5876C16.9983 15.5876 16.654 15.5266 16.3235 15.4046C15.5759 15.1312 14.9778 14.5804 14.6433 13.8584C14.3089 13.1345 14.2754 12.324 14.5489 11.5765C14.7181 11.1162 14.9542 10.6893 15.2532 10.3057C15.5522 9.92211 15.9083 9.58769 16.3136 9.31032C17.0908 8.77918 17.9859 8.48804 18.9008 8.46837C18.9322 8.46837 18.9637 8.46837 18.9972 8.46837C19.1172 8.46837 19.2372 8.4723 19.3572 8.48214C20.0615 8.14772 20.8387 7.97461 21.6433 7.97461C21.7673 7.97461 21.8912 7.97854 22.0152 7.98641C22.027 7.98641 22.0407 7.98641 22.0525 7.98838C23.2113 8.07494 24.3328 8.53132 25.2082 9.27491C25.5683 9.57982 25.885 9.93194 26.1526 10.3214C26.4339 10.7326 26.6582 11.1831 26.8156 11.6591C26.975 12.1332 27.0655 12.627 27.0891 13.1286C27.1225 13.9292 26.8451 14.6905 26.3061 15.2787C25.767 15.8649 25.0312 16.2072 24.2364 16.2426C24.1931 16.2426 24.1498 16.2446 24.1085 16.2446L24.1065 16.2426Z" fill="#00211F"/>
<path id="Vector_5" fill-rule="evenodd" clip-rule="evenodd" d="M21.1987 49.3936C21.0197 49.3936 20.8387 49.3936 20.6577 49.3896C20.4767 49.3916 20.2977 49.3936 20.1167 49.3936C16.1602 49.3936 10.6653 48.7641 8.20012 46.9897C7.74958 46.6651 7.44071 46.1812 7.3384 45.6363L2.43957 19.7857C1.89657 19.6303 1.39882 19.3392 0.989602 18.928C0.352164 18.2907 0 17.4448 0 16.5438C0 15.934 0.167228 15.334 0.482012 14.8107C0.881394 14.1458 1.59359 13.7622 2.33727 13.7622C2.55959 13.7622 2.78387 13.7957 3.00422 13.8685C3.55509 14.0475 3.99185 14.4311 4.24958 14.915H36.4441C36.7097 14.3583 37.2094 13.9314 37.8311 13.7642C38.0161 13.715 38.203 13.6895 38.3899 13.6895C39.0962 13.6895 39.7729 14.0396 40.1841 14.6435C40.5678 15.2081 40.7724 15.8651 40.7724 16.5458C40.7724 17.8599 40.0169 19.0028 38.9171 19.5595L33.975 45.6402C33.8727 46.1851 33.5638 46.6691 33.1133 46.9936C30.6501 48.768 25.1552 49.3975 21.1987 49.3975V49.3936Z" fill="#00211F"/>
<path id="Vector_6" fill-rule="evenodd" clip-rule="evenodd" d="M2.33517 19.2426C1.14686 19.2426 0.182836 18.2865 0.171031 17.0983L0.165129 16.3646C0.163162 16.3233 0.161194 16.28 0.161194 16.2387C0.161194 16.0735 0.169064 15.9043 0.182835 15.741C0.210379 15.4164 0.312684 15.1017 0.477945 14.8223C1.08194 13.8053 2.19352 13.1719 3.37593 13.1719H37.4021C38.3012 13.1719 39.1491 13.524 39.7866 14.1614C39.9302 14.305 40.064 14.4643 40.1801 14.6315C40.4594 15.0348 40.5932 15.5226 40.5598 16.0125C40.5539 16.0951 40.546 16.1777 40.5342 16.2603C40.5066 16.4866 40.4673 16.7128 40.4161 16.9351L40.2686 17.5705C40.0404 18.5501 39.1669 19.2426 38.1615 19.2426H2.33517Z" fill="#00211F"/>
</g>
<g id="Group_2">
<path id="Vector_7" d="M38.3716 15.7262C38.5054 15.9209 38.5821 16.157 38.5821 16.4088C38.5821 17.0737 38.0371 17.6186 37.3741 17.6186H37.0298L31.8221 45.098C30.0947 46.3412 25.3474 47.1556 20.6315 47.0907C15.9157 47.1576 11.1683 46.3432 9.44097 45.098L4.23327 17.6186H3.34794C3.01545 17.6186 2.71443 17.4828 2.49408 17.2645C2.27373 17.0461 2.13995 16.7432 2.13995 16.4088C2.13995 16.1845 2.20291 15.9721 2.31112 15.7911C2.37801 14.9295 2.72034 14.1446 3.24957 13.5249C3.63911 13.0685 4.13293 12.7046 4.69167 12.4666C4.43591 11.599 4.48116 10.7197 4.74872 9.92694C4.92186 9.41745 5.18745 8.94729 5.52388 8.54009C5.86031 8.13485 6.27346 7.78666 6.74367 7.52503C7.49128 7.10602 8.37071 6.90931 9.30129 7.03914C9.45081 6.64964 9.64558 6.30342 9.87773 6.00441C10.2909 5.4713 10.8221 5.08574 11.4221 4.86542C12.0163 4.64706 12.6754 4.59394 13.3482 4.72575C13.6788 4.78869 14.0112 4.89689 14.3418 5.05033C14.7175 4.10019 15.3707 3.36446 16.1675 2.85497C16.9151 2.37695 17.7847 2.10351 18.6661 2.0445C19.5514 1.98548 20.4545 2.13892 21.267 2.51465C22.1996 2.94743 23.0101 3.66544 23.5335 4.68444C23.8541 4.56444 24.1984 4.50149 24.5486 4.49165C25.1369 4.47592 25.7487 4.61558 26.2858 4.89296C26.8406 5.18016 27.3246 5.61687 27.6453 6.18342C27.785 6.43522 27.8952 6.70865 27.964 7.0057C28.5444 6.78144 29.1484 6.67521 29.7465 6.67521C30.5295 6.67521 31.3047 6.86209 32.007 7.20635C32.7094 7.54863 33.335 8.05223 33.821 8.68369C34.4053 9.44302 34.787 10.3892 34.8539 11.4692C35.7825 11.5617 36.6167 11.9787 37.2403 12.6102C37.9486 13.3262 38.3873 14.3137 38.3873 15.4016C38.3873 15.5078 38.3834 15.618 38.3716 15.7301V15.7262ZM36.7406 15.3012C36.7406 15.2678 36.7367 15.2344 36.7347 15.2009C36.6895 14.6383 36.4455 14.1367 36.0776 13.7629C35.6664 13.3479 35.0978 13.0921 34.4683 13.0921C34.4033 13.0921 34.3502 13.0921 34.3109 13.0961C34.2577 13.1 34.2086 13.1039 34.1653 13.1098C34.0413 13.1315 33.9115 13.1197 33.7856 13.0783L33.7639 13.0724C33.642 13.0292 33.5337 12.9623 33.4452 12.8718C33.3645 12.7911 33.2957 12.6889 33.2504 12.563C33.2052 12.441 33.1895 12.3092 33.2052 12.1794C33.2131 12.1164 33.217 12.0574 33.2209 12.0003L33.2249 11.8076C33.2249 10.9676 32.9573 10.2437 32.5245 9.67908C32.1939 9.24827 31.771 8.90795 31.2948 8.67582C30.8207 8.4437 30.2934 8.3178 29.7524 8.3178C29.052 8.3178 28.3378 8.53615 27.7102 9.01418C27.5686 9.12827 27.3974 9.18729 27.2145 9.19319C27.0571 9.19909 26.8957 9.15778 26.7561 9.07319C26.5908 8.97483 26.4747 8.83123 26.4078 8.67189L26.4039 8.66402C26.3468 8.52042 26.3252 8.35321 26.3567 8.18993L26.3606 8.17616C26.4629 7.69224 26.3941 7.2929 26.2209 6.98602C26.0655 6.70865 25.8235 6.49423 25.5422 6.34866C25.2471 6.19522 24.9146 6.1185 24.5958 6.12637C24.2653 6.13621 23.9564 6.23653 23.7479 6.44505L23.7341 6.45686C23.6338 6.55325 23.5118 6.62407 23.3702 6.66144L23.3485 6.66537C23.2324 6.69292 23.1026 6.69882 22.9767 6.67128C22.8134 6.63783 22.6776 6.55915 22.5714 6.45686C22.4553 6.34866 22.3786 6.21096 22.3392 6.07719H22.3432C22.0441 5.0523 21.3831 4.36772 20.5902 4.00183C20.0315 3.74216 19.4039 3.6379 18.7861 3.67921C18.1684 3.72052 17.5644 3.9074 17.0548 4.23199C16.3505 4.68247 15.8193 5.41032 15.6776 6.39981C15.656 6.53948 15.6029 6.66931 15.5261 6.7775C15.4396 6.89947 15.3215 6.98996 15.1838 7.05291L15.1602 7.06668C15.0225 7.12373 14.8671 7.14143 14.7215 7.11782C14.5759 7.09619 14.4441 7.0411 14.326 6.94865C13.8971 6.61816 13.4623 6.41554 13.0492 6.33686C12.6754 6.26407 12.3153 6.29161 11.9986 6.40768C11.6877 6.52177 11.4084 6.72636 11.1861 7.0116C10.9559 7.30667 10.7867 7.6883 10.6981 8.14469L10.6942 8.15846C10.6726 8.26665 10.6273 8.37091 10.5663 8.46337L10.5526 8.47911C10.4778 8.58337 10.3893 8.66205 10.287 8.72107C10.1827 8.78008 10.0686 8.81549 9.95643 8.8273C9.82855 8.84107 9.70854 8.82336 9.59836 8.78795C8.85075 8.53419 8.13659 8.63451 7.55817 8.95713H7.55423C7.26896 9.11647 7.01517 9.33286 6.80072 9.59056C6.58824 9.84826 6.42101 10.1414 6.31281 10.4581C6.09049 11.1112 6.12 11.8666 6.51742 12.5728L6.52922 12.5964C6.58628 12.7046 6.61775 12.8266 6.62169 12.9564L6.62562 12.9859C6.62562 13.1 6.60201 13.222 6.53906 13.3518L6.52922 13.3774C6.47217 13.4856 6.3915 13.5819 6.2892 13.6606L6.2833 13.6646C6.16722 13.7531 6.0236 13.8101 5.87604 13.8278C5.33107 13.9124 4.84906 14.1937 4.50477 14.595C4.34934 14.776 4.22146 14.9826 4.12899 15.2049C4.11325 15.2383 4.10145 15.2717 4.08964 15.3052H36.7485L36.7406 15.3012ZM29.7288 44.2993L33.396 17.656H30.3446L29.3884 28.021L29.2055 30.0157L28.9045 33.2733L28.7097 35.388L27.846 44.7537C28.7628 44.616 28.9556 44.4626 29.7288 44.2973V44.2993ZM25.1979 25.9456L25.613 17.656H23.1518L22.9511 25.4971L22.9118 27.0492L22.6835 35.8739L22.6442 37.4339L22.4435 45.2396C23.0691 45.2003 23.6672 45.157 24.2397 45.1058L24.6411 37.0916L24.7218 35.5021L25.1231 27.5036L25.1998 25.9456H25.1979ZM18.8196 45.2416L18.6189 37.4358L18.5795 35.8759L18.3513 27.0512L18.312 25.4991L18.1113 17.6579H15.6501L16.0652 25.9476L16.1419 27.5056L16.5433 35.5041L16.6239 37.0955L17.0253 45.1098C17.5978 45.1609 18.1959 45.2062 18.8215 45.2435L18.8196 45.2416ZM13.4171 44.7557L12.5534 35.39L12.3586 33.2753L12.0576 30.0176L11.8746 28.0229L10.9185 17.6579L7.86705 17.6422L11.5323 44.3013C12.3075 44.4645 12.5003 44.6199 13.4171 44.7576V44.7557Z" fill="#EB1C24"/>
<path id="Vector_8" d="M36.7348 15.2012C36.7388 15.2346 36.7388 15.2681 36.7407 15.3015H4.08191C4.09371 15.2681 4.10748 15.2326 4.12126 15.2012H36.7329H36.7348Z" fill="#CE3A3A"/>
<path id="Vector_9" d="M36.735 15.2014H4.1214C4.21387 14.9771 4.34175 14.7726 4.49717 14.5916C4.84147 14.1903 5.32348 13.909 5.86845 13.8244C6.01601 13.8067 6.15766 13.7496 6.2757 13.6611L6.2816 13.6572C6.38391 13.5785 6.46457 13.4821 6.52163 13.3739L6.53146 13.3483C6.59442 13.2205 6.61803 13.0965 6.61803 12.9824L6.61409 12.9529C6.61016 12.8211 6.57671 12.6992 6.52163 12.5929L6.50982 12.5693C6.11437 11.8631 6.08487 11.1077 6.30521 10.4546C6.41342 10.1399 6.58065 9.84479 6.79313 9.58709C7.00561 9.32742 7.26137 9.113 7.54664 8.95366H7.55058C8.12703 8.63105 8.84119 8.53072 9.59077 8.78448C9.70095 8.82186 9.82095 8.8376 9.94884 8.82383C10.0629 8.81202 10.1771 8.77661 10.2794 8.71563C10.3797 8.65858 10.4702 8.5799 10.545 8.47564L10.5587 8.4599C10.6217 8.36745 10.665 8.26318 10.6866 8.15499L10.6905 8.14122C10.7791 7.68484 10.9502 7.30517 11.1785 7.00813C11.4008 6.72289 11.6802 6.51634 11.991 6.40421C12.3097 6.28814 12.6678 6.2606 13.0416 6.33339C13.4547 6.41404 13.8895 6.6147 14.3184 6.94715C14.4345 7.03961 14.5683 7.09469 14.7139 7.11633C14.8595 7.13796 15.0149 7.12026 15.1526 7.06518L15.1762 7.05141C15.3139 6.98846 15.432 6.89797 15.5185 6.776C15.5972 6.66781 15.6504 6.53994 15.67 6.39831C15.8117 5.40882 16.3429 4.68097 17.0472 4.23049C17.5568 3.9059 18.1588 3.71902 18.7785 3.67771C19.3983 3.6364 20.0239 3.74066 20.5826 4.00033C21.3755 4.36622 22.0365 5.05079 22.3356 6.07569H22.3317C22.371 6.20946 22.4477 6.34716 22.5638 6.45536C22.67 6.55765 22.8058 6.63633 22.9691 6.66978C23.097 6.69732 23.2248 6.69142 23.3409 6.66388L23.3626 6.65994C23.5042 6.6206 23.6262 6.54978 23.7265 6.45536L23.7403 6.44355C23.9489 6.23503 24.2558 6.13274 24.5883 6.12487C24.907 6.11503 25.2395 6.19372 25.5346 6.34716C25.8159 6.49273 26.0579 6.70715 26.2133 6.98452C26.3865 7.2914 26.4553 7.69074 26.353 8.17466L26.3491 8.18843C26.3176 8.35171 26.3392 8.51892 26.3963 8.66252L26.4002 8.67039C26.4671 8.82973 26.5812 8.9753 26.7485 9.07169C26.8881 9.15628 27.0495 9.19759 27.2069 9.19169C27.3898 9.18579 27.561 9.12677 27.7027 9.01268C28.3303 8.53465 29.0444 8.3163 29.7448 8.3163C30.2858 8.3163 30.8151 8.4422 31.2873 8.67432C31.7614 8.90645 32.1864 9.24677 32.5169 9.67758C32.9497 10.2422 33.2173 10.968 33.2173 11.8061L33.2133 11.9988C33.2094 12.0559 33.2055 12.1149 33.1976 12.1779C33.1819 12.3077 33.1976 12.4415 33.2429 12.5614C33.2881 12.6873 33.357 12.7896 33.4376 12.8723C33.5281 12.9628 33.6344 13.0296 33.7563 13.0709L33.778 13.0769C33.9039 13.1162 34.0337 13.128 34.1577 13.1083C34.2029 13.1024 34.2502 13.0985 34.3033 13.0946C34.3426 13.0906 34.3957 13.0906 34.4607 13.0906C35.0883 13.0906 35.6588 13.3464 36.07 13.7614C36.4379 14.1332 36.6799 14.6368 36.7271 15.1994L36.735 15.2014ZM31.5784 13.3562C31.6119 13.1772 31.6296 13.0001 31.6296 12.829C31.6296 12.0539 31.3128 11.3497 30.8052 10.8421L30.8013 10.8382C30.2918 10.3287 29.5894 10.014 28.8142 10.014C28.5722 10.014 28.3283 10.0474 28.0883 10.1123C27.6495 10.2284 27.3918 10.6789 27.5079 11.1156C27.624 11.5523 28.0745 11.8139 28.5113 11.6959C28.6057 11.6684 28.708 11.6566 28.8123 11.6566C29.1369 11.6566 29.4281 11.7864 29.6425 11.9949L29.6464 11.9988C29.855 12.2113 29.9848 12.5044 29.9848 12.829C29.9848 12.9077 29.9789 12.9805 29.9652 13.0493V13.0532C29.9514 13.128 29.9317 13.1988 29.9061 13.2618C29.7389 13.6808 29.9455 14.1588 30.3645 14.324C30.7836 14.4893 31.2617 14.2847 31.4269 13.8637C31.4938 13.6965 31.543 13.5273 31.5765 13.3562H31.5784ZM24.1417 12.8408C24.5942 12.8211 24.9444 12.4395 24.9247 11.987C24.9089 11.6861 24.8558 11.389 24.7614 11.1038C24.665 10.8205 24.5312 10.549 24.364 10.3031C24.2026 10.0671 24.0157 9.86053 23.8052 9.68348C23.2642 9.22316 22.5815 8.95759 21.891 8.90645H21.887C21.1866 8.8553 20.4705 9.02251 19.8704 9.43365L19.7544 9.51824C19.4888 9.42775 19.2173 9.38841 18.9418 9.39431C18.45 9.40414 17.9621 9.56348 17.5332 9.85856C17.3108 10.01 17.118 10.191 16.9587 10.3976C16.7993 10.6021 16.6695 10.8362 16.579 11.0841C16.4216 11.509 16.6419 11.9811 17.0669 12.1365C17.4918 12.2939 17.964 12.0736 18.1194 11.6487C18.1509 11.5621 18.1962 11.4795 18.2552 11.4048C18.3123 11.33 18.3811 11.2651 18.4559 11.2139C18.6251 11.0979 18.8041 11.0349 18.9733 11.033C19.4533 11.0231 19.6462 11.5405 20.26 11.2375C20.4784 11.1294 20.5905 10.9307 20.7931 10.791C21.0725 10.6002 21.4188 10.5215 21.765 10.5471C22.1211 10.5746 22.4713 10.7084 22.7428 10.9385C22.8412 11.0251 22.9297 11.1215 23.0065 11.2316C23.093 11.3556 23.158 11.4913 23.2052 11.627C23.2524 11.7667 23.2799 11.9123 23.2858 12.0598C23.3055 12.5103 23.6872 12.8605 24.1397 12.8428L24.1417 12.8408ZM15.43 10.2579C15.6346 9.85659 15.4753 9.36086 15.0739 9.15628C14.8693 9.05202 14.6588 8.9694 14.4424 8.90448C14.224 8.84153 13.9997 8.79826 13.7715 8.77662C12.7858 8.68416 11.8592 9.00087 11.1568 9.58315V9.58709C10.4525 10.1713 9.97048 11.0251 9.87998 12.0087C9.87014 12.1051 9.86621 12.2015 9.86424 12.2978V12.3018C9.86424 12.4119 9.86424 12.5064 9.87211 12.5851C9.90162 13.0375 10.2912 13.3798 10.7456 13.3503C11.1981 13.3188 11.5405 12.9293 11.509 12.4769C11.5051 12.41 11.5031 12.3588 11.5031 12.3195V12.3156C11.5031 12.2644 11.507 12.2113 11.5129 12.1582C11.5621 11.627 11.8218 11.1648 12.2035 10.848C12.5871 10.5313 13.0927 10.3582 13.6239 10.4094C13.7459 10.4192 13.8659 10.4428 13.984 10.4782C14.104 10.5136 14.2201 10.5589 14.3263 10.6159C14.7296 10.8205 15.2234 10.6612 15.428 10.2599L15.43 10.2579Z" fill="#FFD17C"/>
<path id="Vector_10" d="M33.394 17.6562L29.7267 44.2996C28.9535 44.4629 28.7607 44.6183 27.8439 44.756L28.7076 35.3903L28.9024 33.2756L29.2034 30.0179L29.3864 28.0232L30.3425 17.6582H33.394V17.6562Z" fill="white"/>
<path id="Vector_11" d="M31.6312 12.8267C31.6312 12.9979 31.6135 13.1749 31.58 13.3539C31.5466 13.5231 31.4974 13.6943 31.4305 13.8615C31.2633 14.2805 30.7872 14.487 30.3681 14.3218C29.9491 14.1546 29.7425 13.6785 29.9097 13.2595C29.9353 13.1966 29.955 13.1257 29.9687 13.051V13.0471C29.9825 12.9782 29.9884 12.9054 29.9884 12.8267C29.9884 12.5022 29.8586 12.211 29.65 11.9966L29.6461 11.9927C29.4336 11.7841 29.1405 11.6543 28.8158 11.6543C28.7116 11.6543 28.6093 11.6661 28.5148 11.6936C28.0761 11.8097 27.6275 11.55 27.5114 11.1133C27.3954 10.6766 27.6531 10.2261 28.0918 10.1101C28.3319 10.0452 28.5778 10.0117 28.8178 10.0117C29.593 10.0117 30.2973 10.3284 30.8049 10.836L30.8088 10.8399C31.3184 11.3494 31.6331 12.0517 31.6331 12.8267H31.6312Z" fill="#EB1C24"/>
<path id="Vector_12" d="M25.6129 17.6562L25.1977 25.9459L25.121 27.5039L24.7197 35.5024L24.639 37.0919L24.2376 45.1061C23.6651 45.1573 23.067 45.2025 22.4414 45.2399L22.6421 37.4342L22.6814 35.8742L22.9096 27.0495L22.949 25.4974L23.1497 17.6562H25.6109H25.6129Z" fill="white"/>
<path id="Vector_13" d="M24.9264 11.9869C24.946 12.4394 24.5958 12.821 24.1433 12.8407C23.6908 12.8604 23.3092 12.5102 23.2895 12.0578C23.2816 11.9102 23.256 11.7627 23.2088 11.625C23.1636 11.4873 23.0967 11.3535 23.0101 11.2296C22.9353 11.1194 22.8468 11.023 22.7465 10.9365C22.475 10.7063 22.1248 10.5706 21.7687 10.545C21.4224 10.5194 21.0762 10.5981 20.7968 10.7889C20.5941 10.9286 20.482 11.1273 20.2636 11.2355C19.6498 11.5384 19.457 11.0211 18.9769 11.0309C18.8077 11.0348 18.6287 11.0958 18.4595 11.2119C18.3847 11.263 18.3159 11.3279 18.2588 11.4027C18.1998 11.4774 18.1546 11.5601 18.1231 11.6466C17.9657 12.0715 17.4955 12.2918 17.0705 12.1345C16.6456 11.9791 16.4252 11.5069 16.5826 11.082C16.6751 10.8342 16.803 10.6021 16.9623 10.3955C17.1197 10.1909 17.3145 10.008 17.5368 9.85649C17.9657 9.56142 18.4536 9.40208 18.9455 9.39224C19.2209 9.38634 19.4924 9.42568 19.758 9.51617L19.8741 9.43158C20.4722 9.02241 21.1903 8.85324 21.8907 8.90438H21.8946C22.5851 8.95553 23.2678 9.22306 23.8089 9.68141C24.0194 9.85846 24.2063 10.065 24.3676 10.3011C24.5368 10.547 24.6686 10.8165 24.765 11.1017C24.8595 11.385 24.9145 11.682 24.9283 11.985L24.9264 11.9869Z" fill="#EB1C24"/>
<path id="Vector_14" d="M18.6187 37.4361L18.8193 45.2419C18.1917 45.2025 17.5956 45.1593 17.0231 45.1081L16.6217 37.0939L16.5411 35.5024L16.1397 27.5039L16.063 25.9459L15.6479 17.6562H18.1091L18.3098 25.4974L18.3491 27.0495L18.5773 35.8742L18.6167 37.4342L18.6187 37.4361Z" fill="white"/>
<path id="Vector_15" d="M15.0756 9.15344C15.4769 9.35803 15.6382 9.85375 15.4317 10.2551C15.2251 10.6564 14.7332 10.8177 14.3299 10.6111C14.2217 10.5541 14.1056 10.5088 13.9876 10.4734C13.8696 10.44 13.7476 10.4164 13.6276 10.4046C13.0944 10.3534 12.5907 10.5265 12.2071 10.8452C11.8254 11.16 11.5657 11.6222 11.5165 12.1534C11.5126 12.2045 11.5087 12.2576 11.5067 12.3108V12.3147C11.5067 12.354 11.5067 12.4071 11.5126 12.4721C11.5441 12.9245 11.2018 13.314 10.7493 13.3455C10.2968 13.375 9.90721 13.0327 9.87573 12.5803C9.86982 12.5016 9.86786 12.4052 9.86786 12.297V12.293C9.86786 12.1967 9.87376 12.1003 9.8836 12.0039C9.97606 11.0183 10.4581 10.1665 11.1604 9.58228V9.57835C11.8628 8.9941 12.7894 8.67935 13.7751 8.77181C14.0033 8.79345 14.2276 8.83476 14.446 8.89968C14.6624 8.96263 14.8729 9.04721 15.0775 9.15147L15.0756 9.15344Z" fill="#EB1C24"/>
<path id="Vector_16" d="M12.5532 35.3875L13.4169 44.7532C12.5001 44.6155 12.3073 44.462 11.5321 44.2968L7.86688 17.6377L10.9183 17.6534L11.8745 28.0185L12.0574 30.0132L12.3585 33.2708L12.5532 35.3855V35.3875Z" fill="white"/>
</g>
<path id="Vector_17" d="M20.4013 44.4662C15.9452 44.4662 12.0025 44.0019 9.5885 43.2898L12.0202 46.1737H29.0992L31.5486 43.1855C29.1759 43.9567 25.07 44.4662 20.4013 44.4662Z" fill="#EB1C24"/>
<g id="Group_3">
<path id="Vector_18" d="M23.3195 35.9974C23.0775 35.9974 22.8355 35.9364 22.6171 35.8223L20.7284 34.8309L18.8397 35.8243C18.6233 35.9384 18.3793 35.9994 18.1373 35.9994C17.6927 35.9994 17.2717 35.8026 16.9825 35.4584C16.6972 35.12 16.5772 34.6735 16.652 34.2348L17.012 32.1319L15.4833 30.6428C15.0702 30.2395 14.9226 29.6474 15.1016 29.0966C15.2807 28.5477 15.747 28.1543 16.3195 28.0697L18.4305 27.7628L19.3748 25.8488C19.6306 25.3314 20.148 25.0088 20.7264 25.0088C21.3049 25.0088 21.8223 25.3314 22.078 25.8488L23.0224 27.7628L25.1334 28.0697C25.7059 28.1523 26.1722 28.5458 26.3512 29.0966C26.5303 29.6454 26.3827 30.2375 25.9696 30.6428L24.4409 32.1319L24.8009 34.2348C24.8757 34.6735 24.7557 35.12 24.4704 35.4584C24.1812 35.8007 23.7602 35.9994 23.3155 35.9994L23.3195 35.9974Z" fill="#FFD17C"/>
<path id="Vector_19" d="M20.7283 25.7954C20.9861 25.7954 21.2418 25.9292 21.3756 26.1967L22.3357 28.1403C22.44 28.3527 22.6446 28.5003 22.8787 28.5337L25.0251 28.8445C25.6173 28.9311 25.8534 29.657 25.4245 30.074L23.8722 31.5868C23.703 31.752 23.6243 31.99 23.6657 32.2241L24.0316 34.3605C24.1123 34.8267 23.7404 35.2044 23.3214 35.2044C23.2112 35.2044 23.0971 35.1788 22.9849 35.1198L21.0667 34.1106C20.9624 34.0556 20.8464 34.028 20.7303 34.028C20.6142 34.028 20.5001 34.0556 20.3958 34.1106L18.4776 35.1198C18.3674 35.1768 18.2533 35.2044 18.1412 35.2044C17.7202 35.2044 17.3503 34.8267 17.431 34.3605L17.7969 32.2241C17.8362 31.99 17.7595 31.752 17.5903 31.5868L16.038 30.074C15.6111 29.657 15.8472 28.9311 16.4374 28.8445L18.5839 28.5337C18.818 28.5003 19.0226 28.3527 19.1269 28.1403L20.087 26.1967C20.2188 25.9292 20.4765 25.7954 20.7342 25.7954M20.7342 24.2217C19.8548 24.2217 19.0659 24.7115 18.6763 25.5003L17.9149 27.0426L16.2131 27.2905C15.3416 27.4164 14.6333 28.0144 14.3599 28.8524C14.0884 29.6884 14.3107 30.5914 14.9402 31.2051L16.1718 32.4051L15.8807 34.1008C15.7665 34.7696 15.9495 35.4483 16.3843 35.9657C16.823 36.487 17.4644 36.786 18.1412 36.786C18.5091 36.786 18.879 36.6935 19.2095 36.5204L20.7323 35.7198L22.255 36.5204C22.5856 36.6935 22.9535 36.786 23.3233 36.786C24.0001 36.786 24.6415 36.487 25.0802 35.9657C25.515 35.4503 25.6999 34.7696 25.5839 34.1008L25.2927 32.4051L26.5243 31.2051C27.1539 30.5914 27.3762 29.6904 27.1047 28.8524C26.8332 28.0164 26.1229 27.4164 25.2514 27.2905L23.5496 27.0426L22.7882 25.5003C22.3986 24.7115 21.6097 24.2217 20.7303 24.2217H20.7342Z" fill="#00211F"/>
</g>
</g>
</svg>
